# xmcd CD database file
#
# Track frame offsets:
#	150
#	21212
#	39051
#	59175
#	82313
#	107986
#	128318
#	139355
#	161811
#	182884
#	199526
#	222078
#	238174
#
# Disc length: 3457 seconds
#
# Revision: 0
# Processed by: cddbd v1.4PL0 Copyright (c) Steve Scherf et al.
# Submitted via: CDex 1.50beta9
#
DISCID=be0d7f0d
DTITLE=Ulf Johansson Werre Trio - For Lovers Only
DYEAR=2000
DGENRE=Jazz
TTITLE0=How Long Has This Been Going On
TTITLE1=Have You Met Miss Jones
TTITLE2=Love Me Or Leave Me
TTITLE3=Mona Lisa
TTITLE4=Squeeze Me
TTITLE5=Sweet And Lovely
TTITLE6=Moonglow
TTITLE7=I Thought About You
TTITLE8=Cherokee
TTITLE9=Taking A Chance On Love
TTITLE10=More Than You Know
TTITLE11=Love Walked In
TTITLE12=Misty
EXTD=YEAR: 2000
EXTT0=
EXTT1=
EXTT2=
EXTT3=
EXTT4=
EXTT5=
EXTT6=
EXTT7=
EXTT8=
EXTT9=
EXTT10=
EXTT11=
EXTT12=
PLAYORDER=
